<svg width="1080" height="1080" viewBox="0 0 1080 1080" fill="none" xmlns="http://www.w3.org/2000/svg">
<rect width="1080" height="1080" rx="256" fill="url(#paint0_linear_88_40)"/>
<path d="M654.486 726.314L632.27 667.916H443.109L420.893 727.584C412.217 750.859 404.812 766.622 398.676 774.874C392.54 782.914 382.489 786.935 368.524 786.935C356.675 786.935 346.202 782.597 337.104 773.922C328.005 765.247 323.456 755.408 323.456 744.405C323.456 738.058 324.514 731.498 326.63 724.728C328.746 717.957 332.237 708.541 337.104 696.48L456.122 394.332C459.507 385.657 463.528 375.289 468.183 363.229C473.049 350.956 478.127 340.8 483.417 332.76C488.918 324.719 496.007 318.266 504.682 313.399C513.568 308.321 524.465 305.782 537.372 305.782C550.491 305.782 561.387 308.321 570.062 313.399C578.949 318.266 586.037 324.614 591.327 332.442C596.828 340.271 601.378 348.735 604.975 357.833C608.783 366.72 613.544 378.674 619.257 393.697L740.814 693.941C750.336 716.793 755.097 733.403 755.097 743.771C755.097 754.562 750.548 764.506 741.449 773.604C732.562 782.491 721.771 786.935 709.076 786.935C701.671 786.935 695.323 785.559 690.033 782.809C684.743 780.27 680.3 776.778 676.703 772.335C673.106 767.68 669.192 760.698 664.96 751.388C660.94 741.866 657.449 733.508 654.486 726.314ZM467.865 597.14H606.879L536.737 405.123L467.865 597.14Z" fill="white"/>
<defs>
<linearGradient id="paint0_linear_88_40" x1="971" y1="67.5" x2="113" y2="999" gradientUnits="userSpaceOnUse">
<stop stop-color="#FF7130"/>
<stop offset="0.549979" stop-color="#FF3C68"/>
<stop offset="1" stop-color="#872B97"/>
</linearGradient>
</defs>
</svg>
